<?xml version="1.0" encoding="utf-8"?>
<!-- Generator: Adobe Illustrator 16.0.0, SVG Export Plug-In . SVG Version: 6.00 Build 0)  -->
<!DOCTYPE svg PUBLIC "-//W3C//DTD SVG 1.1//EN" "http://www.w3.org/Graphics/SVG/1.1/DTD/svg11.dtd">
<svg version="1.1" id="Layer_1" xmlns="http://www.w3.org/2000/svg" xmlns:xlink="http://www.w3.org/1999/xlink" x="0px" y="0px"
	 width="42px" height="42px" viewBox="0 0 42 42" enable-background="new 0 0 42 42" xml:space="preserve">
<g>
	<path fill-rule="evenodd" clip-rule="evenodd" fill="#030303" d="M41.994,17.73c-0.192-0.429-0.53-0.625-0.991-0.666
		c-1.088-0.097-2.17-0.209-3.256-0.316c-0.065-0.005-0.132-0.019-0.226-0.032c-0.409-1.5-1.002-2.924-1.8-4.269
		c0.257-0.388,0.568-0.712,0.851-1.06c0.43-0.529,0.872-1.048,1.305-1.575c0.155-0.189,0.301-0.383,0.339-0.64
		c0.057-0.366-0.064-0.671-0.307-0.936c-0.147-0.16-0.306-0.312-0.459-0.467c-1.143-1.153-2.287-2.306-3.428-3.462
		c-0.28-0.284-0.581-0.485-1.008-0.43c-0.258,0.035-0.457,0.164-0.646,0.319c-0.758,0.623-1.515,1.25-2.271,1.875
		c-0.116,0.096-0.233,0.188-0.387,0.313c-1.335-0.77-2.746-1.388-4.257-1.793c-0.143-0.45-0.116-0.918-0.173-1.373
		c-0.088-0.689-0.132-1.383-0.196-2.075c-0.042-0.446-0.219-0.811-0.637-1.023c0-0.028,0-0.055,0.002-0.083c-0.11,0-0.22,0-0.33,0
		c-1.991,0-3.985,0-5.979,0c-0.109,0-0.218,0-0.328,0c0.006,0.026,0.004,0.051-0.003,0.077c-0.442,0.207-0.617,0.573-0.659,1.043
		c-0.099,1.125-0.217,2.248-0.332,3.414c-1.502,0.41-2.938,1.004-4.298,1.813c-0.39-0.32-0.768-0.631-1.145-0.942
		c-0.504-0.417-1.013-0.83-1.511-1.254C9.342,3.744,8.752,3.759,8.261,4.249C6.95,5.56,5.636,6.87,4.324,8.183
		C3.853,8.655,3.811,9.232,4.278,9.786c0.675,0.804,1.34,1.615,2.01,2.423c0.06,0.073,0.138,0.134,0.161,0.271
		c-0.769,1.304-1.369,2.712-1.783,4.232c-0.344,0.038-0.691,0.081-1.04,0.115C2.813,16.909,2,16.994,1.187,17.064
		c-0.424,0.036-0.756,0.2-0.962,0.586c-0.021,0.041-0.036,0.105-0.11,0.086c0,2.103,0,4.207,0,6.308c0,0.082,0,0.164,0,0.246
		c0.025,0.002,0.048,0.004,0.073,0.005c0.192,0.43,0.53,0.625,0.992,0.666c1.085,0.097,2.169,0.208,3.253,0.315
		c0.066,0.007,0.132,0.02,0.225,0.031c0.412,1.501,1,2.925,1.802,4.269c-0.254,0.387-0.566,0.71-0.848,1.058
		c-0.43,0.528-0.872,1.048-1.306,1.575c-0.147,0.178-0.293,0.363-0.335,0.598c-0.057,0.324-0.003,0.625,0.224,0.879
		c0.062,0.071,0.121,0.148,0.187,0.214c1.274,1.274,2.548,2.549,3.823,3.82c0.184,0.183,0.38,0.355,0.645,0.411
		c0.39,0.085,0.717-0.045,1.016-0.294c0.807-0.673,1.618-1.341,2.426-2.008c0.073-0.061,0.135-0.137,0.27-0.173
		c1.314,0.776,2.736,1.376,4.255,1.791c0.059,0.578,0.119,1.145,0.174,1.712c0.061,0.61,0.109,1.221,0.174,1.83
		c0.044,0.422,0.25,0.74,0.646,0.922c0.008,0.024,0.01,0.052,0.003,0.076c0.109,0,0.218,0,0.328,0c1.995,0,3.988,0,5.979,0
		c0.082,0,0.166,0,0.248,0c0.003-0.021,0.005-0.043,0.007-0.065c0.468-0.173,0.658-0.549,0.707-1.008
		c0.096-0.95,0.182-1.9,0.267-2.85c0.02-0.204,0.028-0.407,0.102-0.625c1.493-0.398,2.912-1.005,4.267-1.797
		c0.593,0.489,1.171,0.964,1.748,1.441c0.316,0.262,0.626,0.528,0.948,0.783c0.532,0.42,1.05,0.402,1.532-0.077
		c1.33-1.314,2.654-2.638,3.971-3.965c0.492-0.495,0.512-0.988,0.073-1.531c-0.635-0.785-1.287-1.556-1.93-2.333
		c-0.087-0.107-0.17-0.212-0.288-0.358c0.356-0.687,0.744-1.37,1.045-2.097c0.296-0.715,0.548-1.445,0.757-2.203
		c0.665-0.065,1.315-0.13,1.963-0.194c0.528-0.053,1.059-0.102,1.588-0.161c0.411-0.047,0.701-0.271,0.87-0.65
		c0.023-0.002,0.048-0.003,0.071-0.007c0-0.082,0-0.164,0-0.246c0-2.02,0-4.042,0-6.063c0-0.082,0-0.164,0-0.246
		C42.042,17.733,42.018,17.73,41.994,17.73z M40.004,22.996c-0.329,0.106-0.662,0.076-0.982,0.117
		c-0.676,0.089-1.356,0.136-2.036,0.194c-0.149,0.013-0.295,0.037-0.443,0.069c-0.364,0.08-0.606,0.296-0.728,0.643
		c-0.071,0.205-0.139,0.411-0.19,0.623c-0.368,1.476-0.97,2.853-1.768,4.147c-0.057,0.092-0.106,0.188-0.164,0.282
		c-0.284,0.478-0.252,0.926,0.105,1.353c0.361,0.43,0.716,0.863,1.071,1.293c0.298,0.357,0.595,0.714,0.89,1.069
		c0.043,0.052,0.099,0.098,0.099,0.132c-0.943,0.945-1.869,1.872-2.816,2.821c-0.37-0.303-0.779-0.64-1.188-0.976
		c-0.42-0.347-0.84-0.694-1.259-1.045c-0.446-0.377-0.888-0.487-1.493-0.102c-1.048,0.668-2.161,1.203-3.339,1.601
		c-0.452,0.151-0.915,0.262-1.374,0.379c-0.568,0.143-0.897,0.467-0.945,1.071c-0.057,0.721-0.145,1.438-0.217,2.157
		c-0.036,0.353-0.066,0.705-0.1,1.056c-0.011,0.011-0.019,0.023-0.029,0.032c-0.01,0.007-0.021,0.021-0.031,0.021
		c-1.298,0-2.594,0-3.913,0c-0.077-0.136-0.076-0.303-0.093-0.458c-0.093-0.909-0.18-1.818-0.258-2.729
		c-0.057-0.658-0.283-0.961-0.915-1.141c-0.614-0.173-1.232-0.326-1.834-0.55c-0.883-0.328-1.728-0.729-2.536-1.211
		c-0.152-0.091-0.302-0.185-0.456-0.272c-0.538-0.301-0.904-0.271-1.39,0.12c-0.362,0.29-0.715,0.591-1.073,0.886
		c-0.473,0.392-0.946,0.781-1.392,1.151c-0.929-0.931-1.851-1.854-2.825-2.829c-0.003-0.021,0.074-0.086,0.133-0.159
		c0.618-0.745,1.225-1.502,1.856-2.237c0.392-0.455,0.488-0.954,0.119-1.526c-0.674-1.045-1.215-2.156-1.596-3.342
		c-0.141-0.439-0.271-0.884-0.379-1.331c-0.133-0.548-0.379-0.933-1.207-0.998c-0.979-0.078-1.956-0.177-2.934-0.266
		c-0.068-0.007-0.135-0.018-0.204-0.073c0-1.297,0-2.607,0-3.955c0.391-0.041,0.779-0.087,1.167-0.123
		c0.692-0.066,1.387-0.12,2.078-0.188c0.621-0.062,0.916-0.32,1.087-0.933c0.17-0.615,0.33-1.231,0.555-1.832
		c0.32-0.857,0.708-1.677,1.175-2.462c0.104-0.176,0.213-0.349,0.313-0.527c0.285-0.514,0.254-0.9-0.117-1.356
		c-0.414-0.507-0.836-1.009-1.253-1.513C6.907,9.757,6.641,9.43,6.378,9.111C6.54,8.835,8.642,6.701,9.172,6.266
		c0.786,0.65,1.574,1.302,2.363,1.952c0.116,0.095,0.235,0.187,0.359,0.269c0.312,0.205,0.64,0.213,0.972,0.059
		c0.135-0.063,0.267-0.138,0.394-0.217c1.403-0.888,2.921-1.504,4.533-1.894c0.079-0.019,0.155-0.047,0.234-0.068
		c0.483-0.134,0.714-0.48,0.763-0.952c0.095-0.908,0.171-1.819,0.258-2.728c0.018-0.189,0.047-0.377,0.074-0.585
		c1.327,0,2.646,0,3.993,0c0.033,0.331,0.071,0.666,0.104,1.001c0.077,0.759,0.164,1.518,0.227,2.278
		c0.048,0.59,0.379,0.905,0.924,1.045c0.606,0.155,1.208,0.32,1.796,0.536c0.987,0.363,1.922,0.827,2.817,1.374
		c0.083,0.05,0.163,0.1,0.245,0.148c0.44,0.254,0.861,0.221,1.255-0.093c0.447-0.358,0.885-0.728,1.328-1.092
		c0.42-0.346,0.842-0.693,1.212-1c0.95,0.922,1.88,1.825,2.832,2.749c-0.285,0.347-0.558,0.682-0.831,1.015
		c-0.419,0.505-0.833,1.012-1.257,1.511c-0.354,0.414-0.438,0.889-0.106,1.428c0.262,0.429,0.521,0.863,0.754,1.309
		c0.568,1.089,0.974,2.242,1.259,3.436c0.064,0.27,0.164,0.523,0.385,0.704c0.229,0.19,0.511,0.24,0.799,0.266
		c0.991,0.088,1.981,0.181,2.973,0.273c0.053,0.005,0.104,0.027,0.174,0.044C40.004,20.354,40.004,21.672,40.004,22.996z"/>
	<path fill-rule="evenodd" clip-rule="evenodd" fill="#030303" d="M21.12,11.403c-5.255-0.02-9.626,4.26-9.64,9.59
		c-0.014,5.279,4.293,9.64,9.599,9.624c5.295,0.028,9.618-4.304,9.623-9.603C30.704,15.761,26.411,11.423,21.12,11.403z
		 M21.08,28.585c-4.156,0-7.558-3.389-7.563-7.562c-0.005-4.198,3.417-7.587,7.582-7.583s7.569,3.392,7.561,7.561
		C28.679,25.168,25.284,28.585,21.08,28.585z"/>
</g>
</svg>
