<?xml version="1.0" encoding="utf-8"?>
<!-- Generator: Adobe Illustrator 16.0.0, SVG Export Plug-In . SVG Version: 6.00 Build 0)  -->
<!DOCTYPE svg PUBLIC "-//W3C//DTD SVG 1.1//EN" "http://www.w3.org/Graphics/SVG/1.1/DTD/svg11.dtd">
<svg version="1.1" id="Layer_1" xmlns="http://www.w3.org/2000/svg" xmlns:xlink="http://www.w3.org/1999/xlink" x="0px" y="0px"
	 width="42px" height="42px" viewBox="0 0 42 42" enable-background="new 0 0 42 42" xml:space="preserve">
<g>
	<path fill-rule="evenodd" clip-rule="evenodd" fill="#030303" d="M-80.582,31.887c-0.192-0.429-0.53-0.625-0.991-0.666
		c-1.088-0.096-2.17-0.209-3.256-0.315c-0.065-0.005-0.132-0.019-0.226-0.032c-0.409-1.499-1.002-2.924-1.8-4.268
		c0.257-0.389,0.568-0.713,0.851-1.061c0.43-0.528,0.872-1.047,1.305-1.574c0.155-0.189,0.301-0.383,0.339-0.641
		c0.057-0.365-0.064-0.67-0.307-0.936c-0.147-0.16-0.306-0.312-0.459-0.467c-1.143-1.153-2.287-2.306-3.428-3.462
		c-0.28-0.284-0.581-0.485-1.008-0.43c-0.258,0.035-0.457,0.164-0.646,0.319c-0.758,0.623-1.515,1.25-2.271,1.875
		c-0.116,0.096-0.233,0.188-0.387,0.313c-1.335-0.77-2.746-1.388-4.257-1.793c-0.143-0.45-0.116-0.918-0.173-1.373
		c-0.088-0.689-0.132-1.383-0.196-2.075c-0.042-0.446-0.219-0.811-0.637-1.023c0-0.028,0-0.055,0.002-0.083c-0.11,0-0.22,0-0.33,0
		c-1.991,0-3.985,0-5.979,0c-0.109,0-0.218,0-0.328,0c0.006,0.026,0.004,0.051-0.003,0.077c-0.442,0.207-0.617,0.573-0.659,1.043
		c-0.099,1.125-0.217,2.248-0.332,3.414c-1.502,0.41-2.938,1.004-4.298,1.813c-0.39-0.32-0.768-0.631-1.145-0.942
		c-0.504-0.417-1.013-0.83-1.511-1.254c-0.523-0.446-1.112-0.431-1.604,0.059c-1.312,1.311-2.625,2.621-3.937,3.934
		c-0.472,0.473-0.514,1.049-0.046,1.604c0.675,0.804,1.34,1.615,2.01,2.424c0.06,0.072,0.138,0.134,0.161,0.27
		c-0.769,1.305-1.369,2.713-1.783,4.232c-0.344,0.038-0.691,0.08-1.04,0.115c-0.813,0.082-1.626,0.166-2.439,0.236
		c-0.424,0.036-0.756,0.2-0.962,0.586c-0.021,0.041-0.036,0.105-0.11,0.086c0,2.104,0,4.207,0,6.309c0,0.082,0,0.164,0,0.246
		c0.025,0.002,0.048,0.004,0.073,0.005c0.192,0.43,0.53,0.625,0.992,0.666c1.085,0.097,2.169,0.208,3.253,0.315
		c0.066,0.007,0.132,0.02,0.225,0.031c0.412,1.501,1,2.925,1.802,4.269c-0.254,0.387-0.566,0.71-0.848,1.058
		c-0.43,0.528-0.872,1.048-1.306,1.575c-0.147,0.178-0.293,0.363-0.335,0.598c-0.057,0.324-0.003,0.625,0.224,0.879
		c0.062,0.071,0.121,0.148,0.187,0.214c1.274,1.274,2.548,2.549,3.823,3.82c0.184,0.183,0.38,0.355,0.645,0.411
		c0.39,0.085,0.717-0.045,1.016-0.294c0.807-0.673,1.618-1.341,2.426-2.008c0.073-0.061,0.135-0.137,0.27-0.173
		c1.314,0.776,2.736,1.376,4.255,1.791c0.059,0.578,0.119,1.145,0.174,1.712c0.061,0.61,0.109,1.221,0.174,1.83
		c0.044,0.422,0.25,0.74,0.646,0.922c0.008,0.024,0.01,0.052,0.003,0.076c0.109,0,0.218,0,0.328,0c1.995,0,3.988,0,5.979,0
		c0.082,0,0.166,0,0.248,0c0.003-0.021,0.005-0.043,0.007-0.065c0.468-0.173,0.658-0.549,0.707-1.008
		c0.096-0.95,0.182-1.9,0.267-2.85c0.02-0.204,0.028-0.407,0.102-0.625c1.493-0.398,2.912-1.005,4.267-1.797
		c0.593,0.489,1.171,0.964,1.748,1.441c0.316,0.262,0.626,0.528,0.948,0.783c0.532,0.42,1.05,0.402,1.532-0.077
		c1.33-1.314,2.654-2.638,3.971-3.965c0.492-0.495,0.512-0.988,0.073-1.531c-0.635-0.785-1.287-1.556-1.93-2.333
		c-0.087-0.107-0.17-0.212-0.288-0.358c0.356-0.687,0.744-1.37,1.045-2.097c0.296-0.715,0.548-1.445,0.757-2.203
		c0.665-0.065,1.315-0.13,1.963-0.194c0.528-0.053,1.059-0.102,1.588-0.161c0.411-0.047,0.701-0.271,0.87-0.65
		c0.023-0.002,0.048-0.003,0.071-0.007c0-0.082,0-0.164,0-0.246c0-2.02,0-4.041,0-6.063c0-0.082,0-0.164,0-0.246
		C-80.534,31.891-80.558,31.888-80.582,31.887z M-82.572,37.153c-0.329,0.106-0.662,0.076-0.982,0.117
		c-0.676,0.089-1.356,0.136-2.036,0.194c-0.149,0.013-0.295,0.037-0.443,0.069c-0.364,0.08-0.606,0.296-0.728,0.643
		c-0.071,0.205-0.139,0.411-0.19,0.623c-0.368,1.476-0.97,2.853-1.768,4.147c-0.057,0.092-0.106,0.188-0.164,0.282
		c-0.284,0.478-0.252,0.926,0.105,1.353c0.361,0.43,0.716,0.863,1.071,1.293c0.298,0.357,0.595,0.714,0.89,1.069
		c0.043,0.052,0.099,0.098,0.099,0.132c-0.943,0.945-1.869,1.872-2.816,2.821c-0.37-0.303-0.779-0.64-1.188-0.976
		c-0.42-0.347-0.84-0.694-1.259-1.045c-0.446-0.377-0.888-0.487-1.493-0.102c-1.048,0.668-2.161,1.203-3.339,1.601
		c-0.452,0.151-0.915,0.262-1.374,0.379c-0.568,0.143-0.897,0.467-0.945,1.071c-0.057,0.721-0.145,1.438-0.217,2.157
		c-0.036,0.353-0.066,0.705-0.1,1.056c-0.011,0.011-0.019,0.023-0.029,0.032c-0.01,0.007-0.021,0.021-0.031,0.021
		c-1.298,0-2.594,0-3.913,0c-0.077-0.136-0.076-0.303-0.093-0.458c-0.093-0.909-0.18-1.818-0.258-2.729
		c-0.057-0.658-0.283-0.961-0.915-1.141c-0.614-0.173-1.232-0.326-1.834-0.55c-0.883-0.328-1.728-0.729-2.536-1.211
		c-0.152-0.091-0.302-0.185-0.456-0.272c-0.538-0.301-0.904-0.271-1.39,0.12c-0.362,0.29-0.715,0.591-1.073,0.886
		c-0.473,0.392-0.946,0.781-1.392,1.151c-0.929-0.931-1.851-1.854-2.825-2.829c-0.003-0.021,0.074-0.086,0.133-0.159
		c0.618-0.745,1.225-1.502,1.856-2.237c0.392-0.455,0.488-0.954,0.119-1.526c-0.674-1.045-1.215-2.156-1.596-3.342
		c-0.141-0.439-0.271-0.884-0.379-1.331c-0.133-0.548-0.379-0.933-1.207-0.998c-0.979-0.078-1.956-0.177-2.934-0.266
		c-0.068-0.007-0.135-0.018-0.204-0.073c0-1.297,0-2.606,0-3.955c0.391-0.041,0.779-0.087,1.167-0.122
		c0.692-0.066,1.387-0.121,2.078-0.188c0.621-0.062,0.916-0.32,1.087-0.933c0.17-0.615,0.33-1.23,0.555-1.832
		c0.32-0.856,0.708-1.677,1.175-2.462c0.104-0.177,0.213-0.349,0.313-0.526c0.285-0.515,0.254-0.9-0.117-1.357
		c-0.414-0.507-0.836-1.008-1.253-1.513c-0.269-0.325-0.535-0.651-0.797-0.971c0.162-0.276,2.264-2.411,2.793-2.845
		c0.786,0.65,1.574,1.302,2.363,1.952c0.116,0.096,0.235,0.188,0.359,0.27c0.312,0.205,0.64,0.213,0.972,0.059
		c0.135-0.063,0.267-0.138,0.394-0.217c1.403-0.889,2.921-1.504,4.533-1.895c0.079-0.019,0.155-0.047,0.234-0.068
		c0.483-0.134,0.714-0.48,0.763-0.952c0.095-0.908,0.171-1.819,0.258-2.728c0.018-0.189,0.047-0.377,0.074-0.585
		c1.327,0,2.646,0,3.993,0c0.033,0.331,0.071,0.666,0.104,1.001c0.077,0.759,0.164,1.518,0.227,2.278
		c0.048,0.59,0.379,0.905,0.924,1.045c0.606,0.155,1.208,0.32,1.796,0.536c0.987,0.362,1.922,0.827,2.817,1.374
		c0.083,0.049,0.163,0.1,0.245,0.147c0.44,0.254,0.861,0.222,1.255-0.093c0.447-0.359,0.885-0.729,1.328-1.092
		c0.42-0.347,0.842-0.694,1.212-1c0.95,0.922,1.88,1.824,2.832,2.748c-0.285,0.348-0.558,0.683-0.831,1.016
		c-0.419,0.505-0.833,1.012-1.257,1.51c-0.354,0.414-0.438,0.89-0.106,1.428c0.262,0.43,0.521,0.863,0.754,1.309
		c0.568,1.09,0.974,2.242,1.259,3.437c0.064,0.27,0.164,0.522,0.385,0.704c0.229,0.189,0.511,0.239,0.799,0.266
		c0.991,0.088,1.981,0.18,2.973,0.272c0.053,0.005,0.104,0.026,0.174,0.044C-82.572,34.512-82.572,35.829-82.572,37.153z"/>
	<path fill-rule="evenodd" clip-rule="evenodd" fill="#030303" d="M-101.456,25.561c-5.255-0.02-9.626,4.26-9.64,9.59
		c-0.014,5.279,4.293,9.641,9.599,9.624c5.295,0.028,9.618-4.304,9.623-9.603C-91.872,29.918-96.165,25.58-101.456,25.561z
		 M-101.496,42.742c-4.156,0-7.558-3.389-7.563-7.562c-0.005-4.198,3.417-7.587,7.582-7.583s7.569,3.393,7.561,7.561
		C-93.897,39.325-97.292,42.742-101.496,42.742z"/>
</g>
<g>
	<path fill-rule="evenodd" clip-rule="evenodd" fill="#030303" d="M33.479,3.031c-0.077-0.382-0.265-1.01-0.499-1.354
		c-0.223-0.322-0.475-0.611-0.778-0.859c-0.312-0.254-0.648-0.445-1.028-0.587c-0.191-0.071-0.424-0.063-0.575-0.234
		c-0.082,0-0.165,0-0.246,0c-0.109,0-0.22,0-0.329,0c-6.016,0-12.032,0-18.048,0c-0.109,0-0.219,0-0.328,0c-0.082,0-0.165,0-0.247,0
		c-0.089,0.12-0.236,0.123-0.36,0.161c-0.75,0.229-1.52,0.748-1.927,1.357C8.98,1.713,8.862,1.925,8.768,2.15
		C8.674,2.373,8.557,2.604,8.544,2.83C8.53,3.084,8.44,3.318,8.44,3.574c0.007,11.14,0.005,22.276,0.012,33.415
		c0,0.658-0.065,1.316,0.067,1.977c0.079,0.395,0.262,1.008,0.5,1.354c0.22,0.324,0.475,0.613,0.778,0.861
		c0.311,0.254,0.649,0.445,1.029,0.588c0.19,0.07,0.423,0.061,0.575,0.234c0.082,0,0.165,0,0.247,0c0.109,0,0.219,0,0.328,0
		c6.017,0,12.033,0,18.048,0c0.109,0,0.22,0,0.329,0s0.219,0,0.327,0c0-0.029,0-0.055,0-0.084c0.157-0.01,0.297-0.074,0.431-0.145
		c0.1-0.053,0.218,0.035,0.307-0.057c0.219-0.227,0.583-0.242,0.767-0.521c0.415-0.182,0.638-0.57,0.86-0.91
		c0.339-0.518,0.507-1.123,0.507-1.754c0.002-11.148,0.003-22.295-0.004-33.442C33.545,4.404,33.617,3.719,33.479,3.031z
		 M10.177,3.594c0.007-0.252,0.072-0.513,0.165-0.748c0.079-0.199,0.203-0.407,0.365-0.539c0.264-0.217,0.538-0.461,0.896-0.493
		c0.149-0.013,0.256-0.131,0.417-0.099c0.145,0.027,0.3,0.005,0.45,0.005c5.78,0,11.561,0.003,17.34-0.005
		c0.322,0,0.627,0.086,0.908,0.191c0.231,0.088,0.441,0.273,0.631,0.481c0.272,0.297,0.333,0.659,0.466,1.003
		c0.018,0.047,0.013,0.105,0.013,0.157c0.002,0.777,0.001,1.554,0.001,2.344c-7.224,0-14.432,0-21.659,0
		C10.169,5.119,10.157,4.355,10.177,3.594z M31.814,7.634c0,7.975,0,15.941,0,23.91c-0.345,0.059-20.331,0.082-21.632,0.023
		c0-7.965,0-15.932,0-23.934C17.399,7.634,24.601,7.634,31.814,7.634z M31.819,38.483c-0.013,0.676-0.346,1.217-0.957,1.547
		c-0.324,0.174-0.671,0.254-1.046,0.252c-5.875-0.004-11.751-0.002-17.627,0c-0.24,0-0.471-0.021-0.693-0.113
		c-0.213-0.086-0.413-0.184-0.602-0.336c-0.36-0.289-0.558-0.639-0.655-1.084c-0.046-0.211-0.07-0.414-0.07-0.623
		c0-1.465,0-2.926,0-4.389c0-0.135,0-0.27,0-0.42c7.242,0,14.44,0,21.659,0c0,0.076,0,0.141,0,0.205
		C31.828,35.177,31.848,36.833,31.819,38.483z"/>
	<path fill-rule="evenodd" clip-rule="evenodd" fill="#030303" d="M22.721,35.683c-1.148,0.006-2.296,0.006-3.444,0
		c-0.434-0.004-0.8,0.111-1.021,0.404c-0.269,0.619-0.073,1.021,0.426,1.32c1.539,0,3.097,0,4.633,0
		c0.5-0.299,0.696-0.701,0.431-1.314C23.499,35.782,23.138,35.679,22.721,35.683z"/>
</g>
<g>
	<path fill-rule="evenodd" clip-rule="evenodd" fill="#030303" d="M-18.908-2.771c-0.324-1.999-2.094-3.546-4.115-3.598
		c-0.26-0.007-0.52-0.006-0.777-0.006c-10.781,0-21.563,0.002-32.344-0.004c-0.86,0-1.676,0.127-2.43,0.573
		c-1.169,0.693-1.889,1.695-2.134,3.034c-0.024-0.001-0.048,0.001-0.071,0.008c0,0.083,0,0.164,0,0.246c0,0.109,0,0.218,0,0.327
		c0,10.349,0,20.696,0,31.044c0,0.191,0,0.383,0,0.576c0.027-0.027,0.055-0.027,0.082,0c0.121,0.977,0.599,1.775,1.298,2.434
		c0.872,0.82,1.922,1.182,3.127,1.182c10.976-0.01,21.95-0.01,32.927,0c1.205,0,2.256-0.361,3.127-1.182
		c0.699-0.658,1.178-1.457,1.299-2.434c0.027-0.027,0.053-0.027,0.082,0c0-0.193,0-0.385,0-0.576c0-10.348,0-20.695,0-31.044
		c0-0.109,0-0.218,0-0.327c0-0.082,0-0.163,0-0.246C-18.861-2.771-18.884-2.772-18.908-2.771z M-59.052-1.89
		c0.002-1.119,0.464-1.971,1.473-2.493c0.318-0.165,0.663-0.246,1.022-0.259c0.163-0.007,0.327-0.007,0.49-0.007
		c10.865,0,21.729,0.001,32.593-0.003c0.51,0,1.006,0.043,1.467,0.285c0.914,0.481,1.416,1.25,1.43,2.268
		c0.031,2.194,0.01,4.391,0.01,6.631c-12.84,0-25.639,0-38.43,0c-0.086-0.088-0.053-0.188-0.053-0.281
		C-59.052,2.205-59.054,0.158-59.052-1.89z M-20.562,28.494c0,1.133-0.436,2.006-1.457,2.545c-0.293,0.154-0.611,0.234-0.939,0.262
		c-0.164,0.014-0.326,0.014-0.492,0.014c-10.906,0-21.814,0-32.722,0.004c-0.645,0-1.248-0.105-1.779-0.49
		c-0.712-0.514-1.056-1.225-1.099-2.092c-0.004-0.084-0.002-0.166-0.002-0.246c0-7.277,0-14.555,0-21.829c0-0.109,0-0.218,0-0.367
		c12.847,0,25.646,0,38.436,0c0.082,0.113,0.051,0.227,0.051,0.332C-20.564,13.914-20.566,21.203-20.562,28.494z"/>
	<path fill-rule="evenodd" clip-rule="evenodd" fill="#030303" d="M-41.324,2.69c1.695,0.004,2.752-1.363,2.748-2.756
		c-0.01-1.502-1.23-2.715-2.74-2.723c-1.512-0.008-2.771,1.246-2.749,2.756C-44.043,1.378-42.991,2.686-41.324,2.69z M-41.308-1.058
		c0.549,0.006,1.013,0.476,1.006,1.021c-0.006,0.532-0.5,1.016-1.029,1.008c-0.531-0.008-1.016-0.503-1.009-1.031
		C-42.333-0.6-41.855-1.062-41.308-1.058z"/>
	<path fill-rule="evenodd" clip-rule="evenodd" fill="#030303" d="M-54.27,2.689c1.67,0.017,2.763-1.335,2.756-2.742
		c0-1.504-1.214-2.724-2.725-2.735c-1.513-0.014-2.785,1.236-2.763,2.744C-56.979,1.394-55.921,2.673-54.27,2.689z M-54.235-1.058
		c0.551,0.008,1.004,0.478,0.994,1.029c-0.01,0.539-0.499,1.012-1.033,0.999c-0.528-0.013-1.016-0.517-1.004-1.039
		C-55.264-0.608-54.783-1.065-54.235-1.058z"/>
	<path fill-rule="evenodd" clip-rule="evenodd" fill="#030303" d="M-47.788,2.689c1.653,0.005,2.75-1.332,2.741-2.757
		c-0.01-1.504-1.233-2.721-2.739-2.721c-1.521,0-2.776,1.248-2.746,2.758C-50.504,1.416-49.421,2.685-47.788,2.689z M-47.802-1.058
		c0.552-0.004,1.023,0.449,1.031,0.994c0.007,0.537-0.466,1.023-1.002,1.033c-0.528,0.009-1.03-0.476-1.037-1.002
		C-48.817-0.571-48.343-1.052-47.802-1.058z"/>
</g>
<path fill-rule="evenodd" clip-rule="evenodd" fill="#030303" d="M23.171,62.38c0,8.123,0,16.246,0,24.368
	c-0.15,0.176-0.068,0.384-0.08,0.579c-0.129,1.09-0.635,1.991-1.42,2.738c-0.98,0.929-2.166,1.308-3.51,1.306
	c-10.459-0.009-20.916-0.005-31.374-0.005c-0.369-0.001-0.738,0.004-1.107-0.015c-1.274-0.06-2.35-0.568-3.219-1.492
	c-0.903-0.962-1.299-2.118-1.299-3.433c0.005-7.902,0.003-15.804,0.003-23.705c0-0.109-0.001-0.219,0.003-0.328
	c0.09-1.668,0.819-2.975,2.219-3.894c0.836-0.551,1.769-0.751,2.762-0.745c2.202,0.01,4.402,0.002,6.603,0
	c0.148,0,0.301,0.035,0.457-0.047c0.112-0.68,0.213-1.367,0.342-2.051c0.256-1.352,0.996-2.335,2.266-2.901
	c0.562-0.25,1.152-0.315,1.758-0.314c3.13,0.003,6.261,0.001,9.39,0.003c0.207,0,0.412,0.001,0.615,0.021
	c0.855,0.09,1.6,0.425,2.23,1.012c0.725,0.674,1.078,1.523,1.217,2.484c0.088,0.59,0.189,1.176,0.281,1.744
	c0.17,0.079,0.309,0.049,0.441,0.049c1.162,0.002,2.324,0,3.486,0.002c1.121,0.002,2.24-0.005,3.363,0.017
	c1.199,0.022,2.232,0.484,3.092,1.31c0.793,0.76,1.293,1.678,1.408,2.786C23.104,62.042,23.013,62.229,23.171,62.38z M-3.503,75.146
	c-4.479-2.342-8.93-4.669-13.431-7.022c0,0.225,0,0.373,0,0.521c0,5.197,0,10.39,0,15.587c0,0.737-0.007,1.475,0.002,2.214
	c0.012,0.995,0.358,1.836,1.175,2.449c0.595,0.448,1.276,0.57,2.006,0.57c10.608-0.007,21.219-0.005,31.827-0.005
	c0.191,0,0.385,0.002,0.574-0.017c0.543-0.05,1.033-0.235,1.469-0.566c0.826-0.631,1.152-1.493,1.152-2.502
	c0.002-5.933,0.002-11.866,0-17.801c0-0.099,0.027-0.208-0.055-0.33c-4.439,2.307-8.861,4.604-13.283,6.901
	c0,0.375,0.002,0.717-0.002,1.058c-0.002,0.381-0.016,0.762-0.092,1.141c-0.389,1.947-2.047,3.507-4.006,3.749
	c-0.982,0.121-1.97,0.11-2.949,0.033c-2.621-0.206-4.431-2.415-4.389-4.797C-3.498,75.946-3.503,75.564-3.503,75.146z
	 M21.271,66.063c0-1.193,0.02-2.355-0.006-3.516c-0.021-0.898-0.361-1.667-1.082-2.246c-0.605-0.488-1.301-0.641-2.063-0.64
	c-10.635,0.005-21.269,0.004-31.903,0.005c-0.191,0-0.383,0.002-0.574,0.018c-1.284,0.111-2.387,1.176-2.521,2.457
	c-0.133,1.266-0.018,2.537-0.063,3.822c4.476,2.341,8.938,4.674,13.437,7.026c0-0.313,0-0.573,0-0.833
	c0-0.26-0.005-0.52,0.003-0.779c0.019-0.623,0.366-0.984,0.985-1.031c0.095-0.008,0.191-0.002,0.287-0.002c2.952,0,5.905,0,8.858,0
	c0.121,0,0.246-0.008,0.367,0.006c0.393,0.045,0.701,0.22,0.865,0.594c0.076,0.178,0.07,0.373,0.07,0.564
	c0.002,0.476,0.002,0.952,0.002,1.484C12.399,70.673,16.821,68.376,21.271,66.063z M-1.599,72.264c0,1.434-0.031,2.829,0.008,4.22
	c0.043,1.531,1.283,2.661,2.644,2.737c0.697,0.04,1.393,0.03,2.088,0.02c0.436-0.006,0.867-0.08,1.264-0.288
	c1.066-0.559,1.609-1.443,1.621-2.642c0.012-1.271,0.002-2.541,0-3.813c0-0.078,0.029-0.167-0.063-0.234
	C3.464,72.264,0.953,72.264-1.599,72.264z M9.386,57.739c-0.111-0.656-0.215-1.273-0.32-1.89c-0.051-0.274-0.166-0.518-0.336-0.738
	c-0.424-0.552-0.998-0.771-1.68-0.771c-3.186,0.005-6.371,0.002-9.556,0.002c-0.109,0-0.219-0.002-0.328,0.012
	c-0.771,0.088-1.354,0.475-1.616,1.203c-0.248,0.69-0.289,1.433-0.399,2.182C-0.092,57.739,4.622,57.739,9.386,57.739z"/>
<path fill-rule="evenodd" clip-rule="evenodd" fill="#323232" d="M387,241c-0.325,0.015-0.65,0.028-0.976,0.043
	c0.15-2.372-0.873-4.906,0.976-7.043C387,236.333,387,238.667,387,241z"/>
<path fill-rule="evenodd" clip-rule="evenodd" fill="#323232" d="M386.139-69.23c0.293,0.057,0.58,0.133,0.861,0.23c0,2,0,4,0,6
	C385.067-64.85,386.189-67.121,386.139-69.23z"/>
</svg>
