<?xml version="1.0" encoding="utf-8"?>
<!-- Generator: Adobe Illustrator 16.0.0, SVG Export Plug-In . SVG Version: 6.00 Build 0)  -->
<!DOCTYPE svg PUBLIC "-//W3C//DTD SVG 1.1//EN" "http://www.w3.org/Graphics/SVG/1.1/DTD/svg11.dtd">
<svg version="1.1" id="Layer_1" xmlns="http://www.w3.org/2000/svg" xmlns:xlink="http://www.w3.org/1999/xlink" x="0px" y="0px"
	 width="36px" height="36px" viewBox="0 0 36 36" enable-background="new 0 0 36 36" xml:space="preserve">
<g>
	<polygon fill="#2FE1C0" points="11.04,2.959 12.221,1.778 13.999,0 0.049,0 0.049,12.899 0.03,13.969 10.925,3.074 	"/>
	<g>
		<polygon fill="#2FE1C0" points="29.288,11.517 22.574,18.001 29.288,24.484 36,30.968 36,18.001 36,5.032 		"/>
		<polygon fill="#2FE1C0" points="2.959,24.991 1.777,23.811 0,22.032 0,35.98 12.899,35.98 13.969,36 3.074,25.105 		"/>
		<path fill="#2FE1C0" d="M31.35,34.279l-4.16-4.176l-5.883-5.649l-6.715-6.442l6.715-6.443l2.627-2.522
			c0.189-0.192,0.381-0.386,0.571-0.578c2.308-2.342,4.582-4.717,6.869-7.075c0.03-0.019,0.058-0.035,0.086-0.055l1.284-1.315
			H22.031L21.26,0.772c-0.089,0.112-0.197,0.209-0.313,0.304l-2.312,2.25L18.611,3.35c-2.723,2.725-5.458,5.439-8.181,8.163
			l-1.303,1.345l-0.115,0.118L8.68,13.318l-0.497,0.51l-0.112,0.118l-0.056,0.056L7.56,14.469l-0.217,0.226l-1.188,1.224
			L5.78,16.305L5.359,16.74l-0.214,0.223l-0.082,0.082L4.167,17.97l0.014,0.017l1.356,1.328l1.955,1.914l0.01,0.012l0.866,0.85
			l1.034,1.01l0.01,0.015l0.612,0.6l0.085,0.084l0.642,0.627l0.974,0.953l0.553,0.544l0.234,0.23l0.415,0.402l0.25,0.247
			l0.395,0.384l0.003,0.002l0.283,0.279l0.697,0.684l0.323,0.315l0.326,0.318l0.345,0.34l0.31,0.306l0.362,0.354l1.277,1.25
			l0.404,0.396l0.248,0.241l0.42,0.413l0.229,0.225l0.441,0.438l1.196,1.172l0.479,0.471l0.177,0.17l0.496,0.489h0.004l0.506,0.498
			L22.57,36h10.492l-0.44-0.441L31.35,34.279z M9.911,23.262H9.907v-0.004H9.91L9.911,23.262L9.911,23.262z M10.572,23.912h-0.003
			V23.91h0.003V23.912z M12.87,26.208h-0.003v-0.004h0.003V26.208z M15.171,28.501h-0.003v-0.004h0.003V28.501z"/>
	</g>
</g>
</svg>
